<mxfile host="app.diagrams.net" modified="2023-11-08T23:02:25.447Z" agent="Mozilla/5.0 (Macintosh; Intel Mac OS X 10_15_7) AppleWebKit/605.1.15 (KHTML, like Gecko) Version/17.0 Safari/605.1.15" etag="GsGIF6ubYbd6uO3PsN2e" version="22.1.0" type="github">
  <diagram name="Page-1" id="4C7nGabXy9XK7AoCNsLR">
    <mxGraphModel dx="848" dy="670" grid="1" gridSize="10" guides="1" tooltips="1" connect="1" arrows="1" fold="1" page="1" pageScale="1" pageWidth="850" pageHeight="1100" math="0" shadow="0">
      <root>
        <mxCell id="0" />
        <mxCell id="1" parent="0" />
        <mxCell id="ybdqn9EeEbOqEpaxUI_V-1" value="CoffeeFactory" style="swimlane;fontStyle=0;childLayout=stackLayout;horizontal=1;startSize=26;fillColor=none;horizontalStack=0;resizeParent=1;resizeParentMax=0;resizeLast=0;collapsible=1;marginBottom=0;whiteSpace=wrap;html=1;" vertex="1" parent="1">
          <mxGeometry x="350" y="307" width="140" height="80" as="geometry" />
        </mxCell>
        <mxCell id="ybdqn9EeEbOqEpaxUI_V-3" value="+ createCappuccino()&lt;br&gt;+ createDripCoffee()&lt;br&gt;+ createLatteMacciatho" style="text;strokeColor=none;fillColor=none;align=left;verticalAlign=top;spacingLeft=4;spacingRight=4;overflow=hidden;rotatable=0;points=[[0,0.5],[1,0.5]];portConstraint=eastwest;whiteSpace=wrap;html=1;" vertex="1" parent="ybdqn9EeEbOqEpaxUI_V-1">
          <mxGeometry y="26" width="140" height="54" as="geometry" />
        </mxCell>
        <mxCell id="ybdqn9EeEbOqEpaxUI_V-5" value="Client" style="html=1;whiteSpace=wrap;" vertex="1" parent="1">
          <mxGeometry x="130" y="322" width="110" height="50" as="geometry" />
        </mxCell>
        <mxCell id="ybdqn9EeEbOqEpaxUI_V-6" value="" style="endArrow=classic;html=1;rounded=0;" edge="1" parent="1" source="ybdqn9EeEbOqEpaxUI_V-5" target="ybdqn9EeEbOqEpaxUI_V-1">
          <mxGeometry width="50" height="50" relative="1" as="geometry">
            <mxPoint x="400" y="370" as="sourcePoint" />
            <mxPoint x="450" y="320" as="targetPoint" />
          </mxGeometry>
        </mxCell>
        <mxCell id="ybdqn9EeEbOqEpaxUI_V-7" value="" style="endArrow=block;html=1;rounded=0;endFill=0;endSize=12;" edge="1" parent="1" target="ybdqn9EeEbOqEpaxUI_V-1">
          <mxGeometry width="50" height="50" relative="1" as="geometry">
            <mxPoint x="420" y="450" as="sourcePoint" />
            <mxPoint x="450" y="320" as="targetPoint" />
          </mxGeometry>
        </mxCell>
        <mxCell id="ybdqn9EeEbOqEpaxUI_V-8" value="CappucinoFactory" style="swimlane;fontStyle=0;childLayout=stackLayout;horizontal=1;startSize=26;fillColor=none;horizontalStack=0;resizeParent=1;resizeParentMax=0;resizeLast=0;collapsible=1;marginBottom=0;whiteSpace=wrap;html=1;" vertex="1" parent="1">
          <mxGeometry x="180" y="530" width="140" height="50" as="geometry" />
        </mxCell>
        <mxCell id="ybdqn9EeEbOqEpaxUI_V-9" value="+createCappuccino" style="text;strokeColor=none;fillColor=none;align=left;verticalAlign=top;spacingLeft=4;spacingRight=4;overflow=hidden;rotatable=0;points=[[0,0.5],[1,0.5]];portConstraint=eastwest;whiteSpace=wrap;html=1;" vertex="1" parent="ybdqn9EeEbOqEpaxUI_V-8">
          <mxGeometry y="26" width="140" height="24" as="geometry" />
        </mxCell>
        <mxCell id="ybdqn9EeEbOqEpaxUI_V-12" value="DripCoffeeFactory" style="swimlane;fontStyle=0;childLayout=stackLayout;horizontal=1;startSize=26;fillColor=none;horizontalStack=0;resizeParent=1;resizeParentMax=0;resizeLast=0;collapsible=1;marginBottom=0;whiteSpace=wrap;html=1;" vertex="1" parent="1">
          <mxGeometry x="355" y="530" width="140" height="52" as="geometry" />
        </mxCell>
        <mxCell id="ybdqn9EeEbOqEpaxUI_V-13" value="+createDripCoffee()" style="text;strokeColor=none;fillColor=none;align=left;verticalAlign=top;spacingLeft=4;spacingRight=4;overflow=hidden;rotatable=0;points=[[0,0.5],[1,0.5]];portConstraint=eastwest;whiteSpace=wrap;html=1;" vertex="1" parent="ybdqn9EeEbOqEpaxUI_V-12">
          <mxGeometry y="26" width="140" height="26" as="geometry" />
        </mxCell>
        <mxCell id="ybdqn9EeEbOqEpaxUI_V-16" value="LatteMacciathoFactory" style="swimlane;fontStyle=0;childLayout=stackLayout;horizontal=1;startSize=26;fillColor=none;horizontalStack=0;resizeParent=1;resizeParentMax=0;resizeLast=0;collapsible=1;marginBottom=0;whiteSpace=wrap;html=1;" vertex="1" parent="1">
          <mxGeometry x="520" y="530" width="140" height="52" as="geometry" />
        </mxCell>
        <mxCell id="ybdqn9EeEbOqEpaxUI_V-17" value="createLatteMacciatho()" style="text;strokeColor=none;fillColor=none;align=left;verticalAlign=top;spacingLeft=4;spacingRight=4;overflow=hidden;rotatable=0;points=[[0,0.5],[1,0.5]];portConstraint=eastwest;whiteSpace=wrap;html=1;" vertex="1" parent="ybdqn9EeEbOqEpaxUI_V-16">
          <mxGeometry y="26" width="140" height="26" as="geometry" />
        </mxCell>
        <mxCell id="ybdqn9EeEbOqEpaxUI_V-20" value="" style="endArrow=none;html=1;rounded=0;" edge="1" parent="1">
          <mxGeometry width="50" height="50" relative="1" as="geometry">
            <mxPoint x="250" y="450" as="sourcePoint" />
            <mxPoint x="580" y="450" as="targetPoint" />
          </mxGeometry>
        </mxCell>
        <mxCell id="ybdqn9EeEbOqEpaxUI_V-25" value="" style="endArrow=none;html=1;rounded=0;" edge="1" parent="1" source="ybdqn9EeEbOqEpaxUI_V-8">
          <mxGeometry width="50" height="50" relative="1" as="geometry">
            <mxPoint x="400" y="480" as="sourcePoint" />
            <mxPoint x="250" y="450" as="targetPoint" />
          </mxGeometry>
        </mxCell>
        <mxCell id="ybdqn9EeEbOqEpaxUI_V-26" value="" style="endArrow=none;html=1;rounded=0;" edge="1" parent="1">
          <mxGeometry width="50" height="50" relative="1" as="geometry">
            <mxPoint x="419.5" y="530" as="sourcePoint" />
            <mxPoint x="419.5" y="450" as="targetPoint" />
          </mxGeometry>
        </mxCell>
        <mxCell id="ybdqn9EeEbOqEpaxUI_V-27" value="" style="endArrow=none;html=1;rounded=0;" edge="1" parent="1">
          <mxGeometry width="50" height="50" relative="1" as="geometry">
            <mxPoint x="580" y="530" as="sourcePoint" />
            <mxPoint x="580" y="450" as="targetPoint" />
          </mxGeometry>
        </mxCell>
        <mxCell id="ybdqn9EeEbOqEpaxUI_V-28" value="" style="endArrow=none;html=1;rounded=0;" edge="1" parent="1" target="ybdqn9EeEbOqEpaxUI_V-8">
          <mxGeometry width="50" height="50" relative="1" as="geometry">
            <mxPoint x="250" y="630" as="sourcePoint" />
            <mxPoint x="450" y="540" as="targetPoint" />
          </mxGeometry>
        </mxCell>
        <mxCell id="ybdqn9EeEbOqEpaxUI_V-29" value="" style="endArrow=none;html=1;rounded=0;" edge="1" parent="1" target="ybdqn9EeEbOqEpaxUI_V-12">
          <mxGeometry width="50" height="50" relative="1" as="geometry">
            <mxPoint x="425" y="632" as="sourcePoint" />
            <mxPoint x="430" y="582" as="targetPoint" />
          </mxGeometry>
        </mxCell>
        <mxCell id="ybdqn9EeEbOqEpaxUI_V-30" value="" style="endArrow=none;html=1;rounded=0;" edge="1" parent="1" target="ybdqn9EeEbOqEpaxUI_V-16">
          <mxGeometry width="50" height="50" relative="1" as="geometry">
            <mxPoint x="589.5" y="632" as="sourcePoint" />
            <mxPoint x="589.5" y="582" as="targetPoint" />
          </mxGeometry>
        </mxCell>
        <mxCell id="ybdqn9EeEbOqEpaxUI_V-31" value="" style="endArrow=classic;html=1;rounded=0;exitX=0;exitY=1;exitDx=0;exitDy=0;" edge="1" parent="1" source="ybdqn9EeEbOqEpaxUI_V-5">
          <mxGeometry width="50" height="50" relative="1" as="geometry">
            <mxPoint x="400" y="590" as="sourcePoint" />
            <mxPoint x="130" y="810" as="targetPoint" />
          </mxGeometry>
        </mxCell>
        <mxCell id="ybdqn9EeEbOqEpaxUI_V-32" value="" style="endArrow=classic;html=1;rounded=0;exitX=0.25;exitY=1;exitDx=0;exitDy=0;" edge="1" parent="1" source="ybdqn9EeEbOqEpaxUI_V-5">
          <mxGeometry width="50" height="50" relative="1" as="geometry">
            <mxPoint x="400" y="590" as="sourcePoint" />
            <mxPoint x="160" y="820" as="targetPoint" />
          </mxGeometry>
        </mxCell>
        <mxCell id="ybdqn9EeEbOqEpaxUI_V-33" value="Cappuccino&amp;nbsp;" style="html=1;whiteSpace=wrap;" vertex="1" parent="1">
          <mxGeometry x="300" y="740" width="110" height="50" as="geometry" />
        </mxCell>
        <mxCell id="ybdqn9EeEbOqEpaxUI_V-34" value="DripCoffee" style="html=1;whiteSpace=wrap;" vertex="1" parent="1">
          <mxGeometry x="440" y="740" width="110" height="50" as="geometry" />
        </mxCell>
        <mxCell id="ybdqn9EeEbOqEpaxUI_V-35" value="LatteMacciatho" style="html=1;whiteSpace=wrap;" vertex="1" parent="1">
          <mxGeometry x="580" y="740" width="110" height="50" as="geometry" />
        </mxCell>
        <mxCell id="ybdqn9EeEbOqEpaxUI_V-36" value="AbstractCoffeeFactory" style="swimlane;fontStyle=0;childLayout=stackLayout;horizontal=1;startSize=26;fillColor=none;horizontalStack=0;resizeParent=1;resizeParentMax=0;resizeLast=0;collapsible=1;marginBottom=0;whiteSpace=wrap;html=1;" vertex="1" parent="1">
          <mxGeometry x="1120" y="317" width="140" height="80" as="geometry" />
        </mxCell>
        <mxCell id="ybdqn9EeEbOqEpaxUI_V-37" value="+ createCappuccino()&lt;br&gt;+ createDripCoffee()&lt;br&gt;+ createLatteMacciatho" style="text;strokeColor=none;fillColor=none;align=left;verticalAlign=top;spacingLeft=4;spacingRight=4;overflow=hidden;rotatable=0;points=[[0,0.5],[1,0.5]];portConstraint=eastwest;whiteSpace=wrap;html=1;" vertex="1" parent="ybdqn9EeEbOqEpaxUI_V-36">
          <mxGeometry y="26" width="140" height="54" as="geometry" />
        </mxCell>
        <mxCell id="ybdqn9EeEbOqEpaxUI_V-38" value="Client" style="html=1;whiteSpace=wrap;" vertex="1" parent="1">
          <mxGeometry x="900" y="332" width="110" height="50" as="geometry" />
        </mxCell>
        <mxCell id="ybdqn9EeEbOqEpaxUI_V-39" value="" style="endArrow=classic;html=1;rounded=0;" edge="1" parent="1" source="ybdqn9EeEbOqEpaxUI_V-38" target="ybdqn9EeEbOqEpaxUI_V-36">
          <mxGeometry width="50" height="50" relative="1" as="geometry">
            <mxPoint x="1170" y="380" as="sourcePoint" />
            <mxPoint x="1220" y="330" as="targetPoint" />
          </mxGeometry>
        </mxCell>
        <mxCell id="ybdqn9EeEbOqEpaxUI_V-40" value="" style="endArrow=block;html=1;rounded=0;endFill=0;endSize=12;" edge="1" parent="1" target="ybdqn9EeEbOqEpaxUI_V-36">
          <mxGeometry width="50" height="50" relative="1" as="geometry">
            <mxPoint x="1190" y="460" as="sourcePoint" />
            <mxPoint x="1220" y="330" as="targetPoint" />
          </mxGeometry>
        </mxCell>
        <mxCell id="ybdqn9EeEbOqEpaxUI_V-41" value="CoffeeFactory1" style="swimlane;fontStyle=0;childLayout=stackLayout;horizontal=1;startSize=26;fillColor=none;horizontalStack=0;resizeParent=1;resizeParentMax=0;resizeLast=0;collapsible=1;marginBottom=0;whiteSpace=wrap;html=1;" vertex="1" parent="1">
          <mxGeometry x="950" y="540" width="140" height="80" as="geometry" />
        </mxCell>
        <mxCell id="ybdqn9EeEbOqEpaxUI_V-42" value="+ createCappuccino()&lt;br style=&quot;border-color: var(--border-color);&quot;&gt;+ createDripCoffee()&lt;br style=&quot;border-color: var(--border-color);&quot;&gt;+ createLatteMacciatho" style="text;strokeColor=none;fillColor=none;align=left;verticalAlign=top;spacingLeft=4;spacingRight=4;overflow=hidden;rotatable=0;points=[[0,0.5],[1,0.5]];portConstraint=eastwest;whiteSpace=wrap;html=1;" vertex="1" parent="ybdqn9EeEbOqEpaxUI_V-41">
          <mxGeometry y="26" width="140" height="54" as="geometry" />
        </mxCell>
        <mxCell id="ybdqn9EeEbOqEpaxUI_V-45" value="CoffeeFactory2" style="swimlane;fontStyle=0;childLayout=stackLayout;horizontal=1;startSize=26;fillColor=none;horizontalStack=0;resizeParent=1;resizeParentMax=0;resizeLast=0;collapsible=1;marginBottom=0;whiteSpace=wrap;html=1;" vertex="1" parent="1">
          <mxGeometry x="1290" y="540" width="140" height="80" as="geometry" />
        </mxCell>
        <mxCell id="ybdqn9EeEbOqEpaxUI_V-46" value="+ createCappuccino()&lt;br style=&quot;border-color: var(--border-color);&quot;&gt;+ createDripCoffee()&lt;br style=&quot;border-color: var(--border-color);&quot;&gt;+ createLatteMacciatho" style="text;strokeColor=none;fillColor=none;align=left;verticalAlign=top;spacingLeft=4;spacingRight=4;overflow=hidden;rotatable=0;points=[[0,0.5],[1,0.5]];portConstraint=eastwest;whiteSpace=wrap;html=1;" vertex="1" parent="ybdqn9EeEbOqEpaxUI_V-45">
          <mxGeometry y="26" width="140" height="54" as="geometry" />
        </mxCell>
        <mxCell id="ybdqn9EeEbOqEpaxUI_V-47" value="" style="endArrow=none;html=1;rounded=0;" edge="1" parent="1">
          <mxGeometry width="50" height="50" relative="1" as="geometry">
            <mxPoint x="1020" y="460" as="sourcePoint" />
            <mxPoint x="1350" y="460" as="targetPoint" />
          </mxGeometry>
        </mxCell>
        <mxCell id="ybdqn9EeEbOqEpaxUI_V-48" value="" style="endArrow=none;html=1;rounded=0;" edge="1" parent="1" source="ybdqn9EeEbOqEpaxUI_V-41">
          <mxGeometry width="50" height="50" relative="1" as="geometry">
            <mxPoint x="1170" y="490" as="sourcePoint" />
            <mxPoint x="1020" y="460" as="targetPoint" />
          </mxGeometry>
        </mxCell>
        <mxCell id="ybdqn9EeEbOqEpaxUI_V-50" value="" style="endArrow=none;html=1;rounded=0;" edge="1" parent="1">
          <mxGeometry width="50" height="50" relative="1" as="geometry">
            <mxPoint x="1350" y="540" as="sourcePoint" />
            <mxPoint x="1350" y="460" as="targetPoint" />
          </mxGeometry>
        </mxCell>
        <mxCell id="ybdqn9EeEbOqEpaxUI_V-51" value="" style="endArrow=none;html=1;rounded=0;" edge="1" parent="1" target="ybdqn9EeEbOqEpaxUI_V-41">
          <mxGeometry width="50" height="50" relative="1" as="geometry">
            <mxPoint x="1020" y="640" as="sourcePoint" />
            <mxPoint x="1220" y="550" as="targetPoint" />
          </mxGeometry>
        </mxCell>
        <mxCell id="ybdqn9EeEbOqEpaxUI_V-53" value="" style="endArrow=none;html=1;rounded=0;" edge="1" parent="1" target="ybdqn9EeEbOqEpaxUI_V-45">
          <mxGeometry width="50" height="50" relative="1" as="geometry">
            <mxPoint x="1359.5" y="642" as="sourcePoint" />
            <mxPoint x="1359.5" y="592" as="targetPoint" />
          </mxGeometry>
        </mxCell>
        <mxCell id="ybdqn9EeEbOqEpaxUI_V-54" value="" style="endArrow=classic;html=1;rounded=0;exitX=0;exitY=1;exitDx=0;exitDy=0;" edge="1" parent="1" source="ybdqn9EeEbOqEpaxUI_V-38" target="ybdqn9EeEbOqEpaxUI_V-57">
          <mxGeometry width="50" height="50" relative="1" as="geometry">
            <mxPoint x="1170" y="600" as="sourcePoint" />
            <mxPoint x="900" y="990" as="targetPoint" />
            <Array as="points">
              <mxPoint x="900" y="980" />
            </Array>
          </mxGeometry>
        </mxCell>
        <mxCell id="ybdqn9EeEbOqEpaxUI_V-55" value="" style="endArrow=classic;html=1;rounded=0;exitX=0.25;exitY=1;exitDx=0;exitDy=0;" edge="1" parent="1" source="ybdqn9EeEbOqEpaxUI_V-38" target="ybdqn9EeEbOqEpaxUI_V-56">
          <mxGeometry width="50" height="50" relative="1" as="geometry">
            <mxPoint x="1170" y="600" as="sourcePoint" />
            <mxPoint x="930" y="790" as="targetPoint" />
            <Array as="points">
              <mxPoint x="928" y="775" />
            </Array>
          </mxGeometry>
        </mxCell>
        <mxCell id="ybdqn9EeEbOqEpaxUI_V-56" value="AbstractCappuccino&amp;nbsp;" style="html=1;whiteSpace=wrap;" vertex="1" parent="1">
          <mxGeometry x="1070" y="750" width="110" height="50" as="geometry" />
        </mxCell>
        <mxCell id="ybdqn9EeEbOqEpaxUI_V-57" value="AbstractDripCoffee" style="html=1;whiteSpace=wrap;" vertex="1" parent="1">
          <mxGeometry x="1070" y="960" width="110" height="50" as="geometry" />
        </mxCell>
        <mxCell id="ybdqn9EeEbOqEpaxUI_V-58" value="AbstractLatteMacciatho" style="html=1;whiteSpace=wrap;" vertex="1" parent="1">
          <mxGeometry x="1070" y="1190" width="130" height="50" as="geometry" />
        </mxCell>
        <mxCell id="ybdqn9EeEbOqEpaxUI_V-59" value="" style="endArrow=block;html=1;rounded=0;endFill=0;endSize=12;" edge="1" parent="1">
          <mxGeometry width="50" height="50" relative="1" as="geometry">
            <mxPoint x="1125" y="860" as="sourcePoint" />
            <mxPoint x="1124.5" y="800" as="targetPoint" />
          </mxGeometry>
        </mxCell>
        <mxCell id="ybdqn9EeEbOqEpaxUI_V-60" value="" style="endArrow=block;html=1;rounded=0;endFill=0;endSize=12;" edge="1" parent="1">
          <mxGeometry width="50" height="50" relative="1" as="geometry">
            <mxPoint x="1125" y="1080" as="sourcePoint" />
            <mxPoint x="1124.5" y="1010" as="targetPoint" />
          </mxGeometry>
        </mxCell>
        <mxCell id="ybdqn9EeEbOqEpaxUI_V-61" value="" style="endArrow=block;html=1;rounded=0;endFill=0;endSize=12;" edge="1" parent="1">
          <mxGeometry width="50" height="50" relative="1" as="geometry">
            <mxPoint x="1135" y="1310" as="sourcePoint" />
            <mxPoint x="1134.5" y="1240" as="targetPoint" />
          </mxGeometry>
        </mxCell>
        <mxCell id="ybdqn9EeEbOqEpaxUI_V-62" value="" style="endArrow=classic;html=1;rounded=0;" edge="1" parent="1" source="ybdqn9EeEbOqEpaxUI_V-38" target="ybdqn9EeEbOqEpaxUI_V-58">
          <mxGeometry width="50" height="50" relative="1" as="geometry">
            <mxPoint x="880" y="360" as="sourcePoint" />
            <mxPoint x="850" y="1120" as="targetPoint" />
            <Array as="points">
              <mxPoint x="870" y="360" />
              <mxPoint x="880" y="1220" />
            </Array>
          </mxGeometry>
        </mxCell>
        <mxCell id="ybdqn9EeEbOqEpaxUI_V-63" value="ChocalateCappuccino&amp;nbsp;" style="html=1;whiteSpace=wrap;" vertex="1" parent="1">
          <mxGeometry x="970" y="890" width="120" height="50" as="geometry" />
        </mxCell>
        <mxCell id="ybdqn9EeEbOqEpaxUI_V-64" value="VanillaCappuccino&amp;nbsp;" style="html=1;whiteSpace=wrap;" vertex="1" parent="1">
          <mxGeometry x="1180" y="890" width="110" height="50" as="geometry" />
        </mxCell>
        <mxCell id="ybdqn9EeEbOqEpaxUI_V-65" value="" style="endArrow=none;html=1;rounded=0;" edge="1" parent="1">
          <mxGeometry width="50" height="50" relative="1" as="geometry">
            <mxPoint x="1030" y="860" as="sourcePoint" />
            <mxPoint x="1380" y="860" as="targetPoint" />
          </mxGeometry>
        </mxCell>
        <mxCell id="ybdqn9EeEbOqEpaxUI_V-66" value="" style="endArrow=none;html=1;rounded=0;" edge="1" parent="1">
          <mxGeometry width="50" height="50" relative="1" as="geometry">
            <mxPoint x="1030" y="890" as="sourcePoint" />
            <mxPoint x="1030" y="860" as="targetPoint" />
          </mxGeometry>
        </mxCell>
        <mxCell id="ybdqn9EeEbOqEpaxUI_V-67" value="" style="endArrow=none;html=1;rounded=0;" edge="1" parent="1">
          <mxGeometry width="50" height="50" relative="1" as="geometry">
            <mxPoint x="1230" y="860" as="sourcePoint" />
            <mxPoint x="1230" y="890" as="targetPoint" />
          </mxGeometry>
        </mxCell>
        <mxCell id="ybdqn9EeEbOqEpaxUI_V-68" value="" style="endArrow=none;html=1;rounded=0;" edge="1" parent="1">
          <mxGeometry width="50" height="50" relative="1" as="geometry">
            <mxPoint x="1033.5" y="1080" as="sourcePoint" />
            <mxPoint x="1380" y="1080" as="targetPoint" />
          </mxGeometry>
        </mxCell>
        <mxCell id="ybdqn9EeEbOqEpaxUI_V-69" value="" style="endArrow=none;html=1;rounded=0;" edge="1" parent="1">
          <mxGeometry width="50" height="50" relative="1" as="geometry">
            <mxPoint x="1034" y="1110" as="sourcePoint" />
            <mxPoint x="1033.5" y="1080" as="targetPoint" />
          </mxGeometry>
        </mxCell>
        <mxCell id="ybdqn9EeEbOqEpaxUI_V-70" value="" style="endArrow=none;html=1;rounded=0;" edge="1" parent="1">
          <mxGeometry width="50" height="50" relative="1" as="geometry">
            <mxPoint x="1233.5" y="1080" as="sourcePoint" />
            <mxPoint x="1234" y="1110" as="targetPoint" />
          </mxGeometry>
        </mxCell>
        <mxCell id="ybdqn9EeEbOqEpaxUI_V-71" value="" style="endArrow=none;html=1;rounded=0;" edge="1" parent="1">
          <mxGeometry width="50" height="50" relative="1" as="geometry">
            <mxPoint x="1040" y="1310" as="sourcePoint" />
            <mxPoint x="1390" y="1310" as="targetPoint" />
          </mxGeometry>
        </mxCell>
        <mxCell id="ybdqn9EeEbOqEpaxUI_V-72" value="" style="endArrow=none;html=1;rounded=0;" edge="1" parent="1">
          <mxGeometry width="50" height="50" relative="1" as="geometry">
            <mxPoint x="1040" y="1340" as="sourcePoint" />
            <mxPoint x="1040" y="1310" as="targetPoint" />
          </mxGeometry>
        </mxCell>
        <mxCell id="ybdqn9EeEbOqEpaxUI_V-73" value="" style="endArrow=none;html=1;rounded=0;" edge="1" parent="1">
          <mxGeometry width="50" height="50" relative="1" as="geometry">
            <mxPoint x="1240" y="1310" as="sourcePoint" />
            <mxPoint x="1240" y="1340" as="targetPoint" />
          </mxGeometry>
        </mxCell>
        <mxCell id="ybdqn9EeEbOqEpaxUI_V-74" value="ChocalateDripCoffee&amp;nbsp;" style="html=1;whiteSpace=wrap;" vertex="1" parent="1">
          <mxGeometry x="970" y="1110" width="120" height="50" as="geometry" />
        </mxCell>
        <mxCell id="ybdqn9EeEbOqEpaxUI_V-75" value="VanillaDripCoffee&amp;nbsp;" style="html=1;whiteSpace=wrap;" vertex="1" parent="1">
          <mxGeometry x="1180" y="1110" width="110" height="50" as="geometry" />
        </mxCell>
        <mxCell id="ybdqn9EeEbOqEpaxUI_V-76" value="ChocalateLatteMacciatho&amp;nbsp;" style="html=1;whiteSpace=wrap;" vertex="1" parent="1">
          <mxGeometry x="960" y="1340" width="140" height="50" as="geometry" />
        </mxCell>
        <mxCell id="ybdqn9EeEbOqEpaxUI_V-77" value="VanillaLatteMacciatho&amp;nbsp;" style="html=1;whiteSpace=wrap;" vertex="1" parent="1">
          <mxGeometry x="1180" y="1340" width="130" height="50" as="geometry" />
        </mxCell>
        <mxCell id="ybdqn9EeEbOqEpaxUI_V-79" value="" style="endArrow=none;html=1;rounded=0;" edge="1" parent="1">
          <mxGeometry width="50" height="50" relative="1" as="geometry">
            <mxPoint x="1380" y="860" as="sourcePoint" />
            <mxPoint x="1380" y="890" as="targetPoint" />
          </mxGeometry>
        </mxCell>
        <mxCell id="ybdqn9EeEbOqEpaxUI_V-80" value="" style="endArrow=none;html=1;rounded=0;" edge="1" parent="1">
          <mxGeometry width="50" height="50" relative="1" as="geometry">
            <mxPoint x="1380" y="1080" as="sourcePoint" />
            <mxPoint x="1380" y="1110" as="targetPoint" />
          </mxGeometry>
        </mxCell>
        <mxCell id="ybdqn9EeEbOqEpaxUI_V-81" value="" style="endArrow=none;html=1;rounded=0;" edge="1" parent="1" target="ybdqn9EeEbOqEpaxUI_V-84">
          <mxGeometry width="50" height="50" relative="1" as="geometry">
            <mxPoint x="1390" y="1310" as="sourcePoint" />
            <mxPoint x="1380" y="1330" as="targetPoint" />
          </mxGeometry>
        </mxCell>
        <mxCell id="ybdqn9EeEbOqEpaxUI_V-82" value="HazelnutCappuccino&amp;nbsp;" style="html=1;whiteSpace=wrap;" vertex="1" parent="1">
          <mxGeometry x="1320" y="890" width="120" height="50" as="geometry" />
        </mxCell>
        <mxCell id="ybdqn9EeEbOqEpaxUI_V-83" value="HazelnutDripCoffee&amp;nbsp;" style="html=1;whiteSpace=wrap;" vertex="1" parent="1">
          <mxGeometry x="1320" y="1110" width="120" height="50" as="geometry" />
        </mxCell>
        <mxCell id="ybdqn9EeEbOqEpaxUI_V-84" value="HazelnutLatteMacciatho&amp;nbsp;" style="html=1;whiteSpace=wrap;" vertex="1" parent="1">
          <mxGeometry x="1320" y="1340" width="140" height="50" as="geometry" />
        </mxCell>
      </root>
    </mxGraphModel>
  </diagram>
</mxfile>
